<svg width="12" height="21" viewBox="0 0 12 21" fill="none" xmlns="http://www.w3.org/2000/svg">
<path d="M1.95899 0.554442L10.9608 9.78904C11.1189 9.95124 11.2074 10.1688 11.2074 10.3953C11.2074 10.6218 11.1189 10.8394 10.9608 11.0016L1.95899 20.2396C1.88534 20.3153 1.79729 20.3754 1.70002 20.4164C1.60276 20.4575 1.49826 20.4786 1.39268 20.4786C1.28711 20.4786 1.18261 20.4575 1.08535 20.4164C0.988081 20.3754 0.900027 20.3153 0.82638 20.2396C0.674863 20.0845 0.590037 19.8763 0.590037 19.6594C0.590037 19.4426 0.674863 19.2344 0.82638 19.0792L9.29143 10.3953L0.82638 1.71311C0.675383 1.55807 0.590886 1.3502 0.590886 1.13378C0.590886 0.917354 0.675383 0.709485 0.82638 0.554442C0.900027 0.478801 0.988081 0.418681 1.08535 0.37763C1.18261 0.336579 1.28711 0.31543 1.39268 0.31543C1.49826 0.31543 1.60276 0.336579 1.70002 0.37763C1.79729 0.418681 1.88534 0.478801 1.95899 0.554442Z" fill="#4878B0"/>
</svg>
