<svg width="512" height="362" viewBox="0 0 512 362" fill="none" xmlns="http://www.w3.org/2000/svg">
<g clip-path="url(#clip0_30_7)">
<path opacity="0.1" d="M170.219 361.797C195.153 361.797 215.366 358.556 215.366 354.559C215.366 350.562 195.153 347.321 170.219 347.321C145.285 347.321 125.072 350.562 125.072 354.559C125.072 358.556 145.285 361.797 170.219 361.797Z" fill="#9EBCE4"/>
<path opacity="0.1" d="M415.632 362C446.745 362 471.968 358.76 471.968 354.762C471.968 350.765 446.745 347.524 415.632 347.524C384.518 347.524 359.295 350.765 359.295 354.762C359.295 358.76 384.518 362 415.632 362Z" fill="#9EBCE4"/>
<path opacity="0.1" d="M6.41251 156.41H53.436V220.385H9.85506C9.73923 221.041 9.62803 221.703 9.50757 222.364H53.436V273.958C53.3573 273.935 53.2878 273.907 53.2136 273.879C51.9719 273.389 50.7394 272.871 49.507 272.316L48.7193 271.96C47.4838 271.377 46.2482 270.761 45.0127 270.11C44.5818 269.884 44.1509 269.648 43.7246 269.407C36.8654 265.572 30.6341 260.712 25.2469 254.996C25.0894 254.844 24.9411 254.682 24.7836 254.534C24.033 253.72 23.2963 252.897 22.5828 252.055L21.7951 251.13C20.9519 250.099 20.1364 249.04 19.3441 247.967C19.2283 247.81 19.1171 247.652 18.9966 247.504C15.7743 243.045 13.0989 238.216 11.0273 233.121C10.9624 232.969 10.9068 232.802 10.8466 232.659C10.2103 231.025 9.64656 229.375 9.15543 227.71C8.9423 227.012 8.73844 226.323 8.56237 225.597C8.4975 225.384 8.4419 225.176 8.39094 224.968C5.75921 214.715 5.44878 204.064 5.44878 193.487C5.44878 192.252 5.44878 191.013 5.44878 189.787C5.44878 185.509 5.49975 181.203 5.57388 176.902C5.57388 175.788 5.62021 174.678 5.64338 173.559C5.70824 170.719 5.80091 167.879 5.92138 165.04C5.94918 164.249 5.98624 163.463 6.02794 162.677C6.02794 162.223 6.05111 161.77 6.09745 161.317C6.20864 159.671 6.30131 158.038 6.41251 156.41Z" fill="#9EBCE4"/>
<path opacity="0.3" d="M53.436 85.1792H27.6424C31.8353 78.6286 36.4165 72.3338 41.3616 66.3286C45.1934 61.6299 49.2383 57.0513 53.436 52.6393V85.1792Z" fill="#9EBCE4"/>
<path opacity="0.7" d="M53.436 87.1586V154.431H6.56078C6.56078 154.236 6.59321 154.038 6.60711 153.843C6.64881 153.311 6.69051 152.78 6.73684 152.252C6.78781 151.633 6.84341 151.008 6.90364 150.402C6.96387 149.797 7.02874 149.057 7.09824 148.386C7.16774 147.715 7.23261 147.036 7.31137 146.365C7.39014 145.694 7.45964 145.024 7.54304 144.358C7.62644 143.692 7.70057 143.017 7.78861 142.351C7.85811 141.796 7.93224 141.245 8.00637 140.69C8.11293 139.909 8.22414 139.123 8.3446 138.346C8.3446 138.23 8.37704 138.11 8.39557 137.999C9.24124 132.311 10.3935 126.673 11.8474 121.109C13.3692 115.273 15.3126 109.554 17.6622 103.997C20.1594 98.1849 23.0832 92.5643 26.4099 87.1817L53.436 87.1586Z" fill="#E5EBF4"/>
<path opacity="0.1" d="M64.6626 156.405V220.385H165.099V156.405H64.6626ZM64.6626 222.359V277.302C65.2371 277.422 65.807 277.538 66.3722 277.635C67.1414 277.783 67.9059 277.917 68.6889 278.033C68.8372 278.056 68.9901 278.079 69.1522 278.093C69.458 278.144 69.7731 278.185 70.0789 278.227C70.8527 278.333 71.6218 278.421 72.3956 278.49C72.7616 278.527 73.1323 278.56 73.5029 278.587L74.3971 278.657C74.8836 278.694 75.3655 278.722 75.8427 278.736C76.1393 278.736 76.4358 278.763 76.7416 278.772C76.9733 278.772 77.2049 278.772 77.4459 278.772C77.6868 278.772 78.0297 278.772 78.3216 278.772C78.72 278.772 79.1185 278.772 79.5123 278.772H80.0452C80.4436 278.772 80.8421 278.772 81.2359 278.736H81.2637C81.5371 278.736 81.8151 278.735 82.0931 278.698C82.1702 278.703 82.2476 278.703 82.3248 278.698C82.5564 278.698 82.7881 278.698 83.0105 278.666H83.1726L84.7248 278.546C85.2345 278.5 85.7488 278.44 86.2677 278.384L87.3241 278.259C91.6219 277.658 95.8719 276.756 100.043 275.558C109.411 272.95 118.576 269.301 127.94 266.628C140.047 263.182 153.423 261.49 165.122 265.703V222.359H64.6626ZM165.099 85.1792V0.0046336C154.103 -0.11428 143.137 1.16947 132.467 3.8247C107.034 10.2023 84.2151 24.035 64.6626 41.7017V85.1746H69.7036V87.1494H64.6626V154.431H165.099V87.154H90.4006V85.1792H165.099ZM294.104 56.4085C287.812 56.1865 281.557 54.1978 275.9 51.1269C265.081 45.2535 256.44 36.1843 246.784 28.5303C226.722 12.5887 201.841 2.96912 176.316 0.582731V85.1792H319.694L320.051 84.8046L294.104 56.4085ZM307.166 54.0961L321.015 69.2653V50.1188C316.377 50.6922 312.313 52.0565 307.184 54.0776L307.166 54.0961ZM321.015 290.945V222.359H291.505C291.426 222.068 291.348 221.772 291.255 221.476C291.343 221.772 291.417 222.068 291.5 222.359H176.335V271.96C177.428 272.77 178.508 273.62 179.578 274.485C180.732 275.41 181.872 276.386 183.016 277.343L184.17 278.296C184.721 278.759 185.277 279.221 185.838 279.656C186.95 280.556 188.072 281.444 189.206 282.32C189.767 282.782 190.341 283.198 190.911 283.633C199.959 290.538 209.503 296.769 219.466 302.276C221.7 303.509 223.953 304.713 226.226 305.888C227.741 306.66 229.266 307.428 230.795 308.172C233.093 309.291 235.41 310.371 237.745 311.41C259.274 321.056 282.04 327.676 305.391 331.079C310.577 331.843 315.784 332.445 321.01 332.882V290.94H321.473L321.015 290.945ZM176.335 87.154V154.431H321.033V87.154H176.335ZM176.335 156.405V220.385H321.033V156.405H176.335ZM332.264 50.0355V71.3927L349.94 52.0334C344.084 51.09 338.192 50.4163 332.264 50.0124V50.0355ZM332.264 156.429V220.385H473.001V156.405L332.264 156.429ZM472.487 296.023L472.983 222.359H332.264V333.618C341.329 333.998 350.408 333.89 359.462 333.294H359.619C363.944 333.023 368.248 332.628 372.533 332.11H372.63C395.486 329.455 417.836 323.502 438.979 314.439M500.139 166.941C499.61 165.697 499.059 164.462 498.498 163.241C497.451 160.928 496.344 158.681 495.204 156.433H484.223V220.385H511.986C511.972 202.274 507.381 183.775 500.153 166.918L500.139 166.941ZM484.223 222.383V285.742C492.044 278.259 498.651 269.699 503.41 259.913C509.132 248.129 511.75 235.369 511.963 222.373L484.223 222.383ZM484.223 137.786V154.435H494.176C491.165 148.704 487.847 143.138 484.237 137.763L484.223 137.786ZM388.777 62.5872C388.045 62.3097 387.313 62.0276 386.576 61.7547C378.806 58.8907 370.867 56.509 362.803 54.6233L335.753 84.2542L335.234 84.8046L335.582 85.1838H431.853C418.445 75.9715 403.99 68.3785 388.791 62.564L388.777 62.5872ZM434.675 87.1771H334.238L332.264 88.9808V154.431H349.565H349.593H473.02V122.728C461.855 109.249 448.968 97.2895 434.688 87.154L434.675 87.1771Z" fill="#5D82B3"/>
<path opacity="0.1" d="M53.436 121.091V154.431H6.56078C6.56078 154.236 6.59321 154.038 6.60711 153.843C6.64881 153.311 6.69051 152.78 6.73684 152.252C6.78781 151.633 6.84341 151.008 6.90364 150.402C6.96387 149.797 7.02874 149.057 7.09824 148.386C7.16774 147.715 7.23261 147.036 7.31137 146.365C7.39014 145.694 7.45964 145.024 7.54304 144.358C7.62644 143.692 7.70057 143.017 7.78861 142.351C7.85811 141.796 7.93224 141.245 8.00637 140.69C8.11293 139.909 8.22414 139.123 8.3446 138.346C8.3446 138.23 8.37704 138.11 8.39557 137.999C9.24124 132.311 10.3935 126.673 11.8474 121.109L53.436 121.091Z" fill="#9EBCE4"/>
<path opacity="0.3" d="M6.41251 156.41H53.436V220.385H9.85506C9.73923 221.041 9.62803 221.703 9.50757 222.364H53.436V273.958C53.3573 273.935 53.2878 273.907 53.2136 273.879C51.9719 273.389 50.7394 272.871 49.507 272.316L48.7193 271.96C47.4838 271.377 46.2482 270.761 45.0127 270.11C44.5818 269.884 44.1509 269.648 43.7246 269.407C36.8654 265.572 30.6341 260.712 25.2469 254.996C25.0894 254.844 24.9411 254.682 24.7836 254.534C24.033 253.72 23.2963 252.897 22.5828 252.055L21.7951 251.13C20.9519 250.099 20.1364 249.04 19.3441 247.967C19.2283 247.81 19.1171 247.652 18.9966 247.504C15.7743 243.045 13.0989 238.216 11.0273 233.121C10.9624 232.969 10.9068 232.802 10.8466 232.659C10.2103 231.025 9.64656 229.375 9.15543 227.71C8.9423 227.012 8.73844 226.323 8.56237 225.597C8.4975 225.384 8.4419 225.176 8.39094 224.968C5.75921 214.715 5.44878 204.064 5.44878 193.487C5.44878 192.252 5.44878 191.013 5.44878 189.787C5.44878 185.509 5.49975 181.203 5.57388 176.902C5.57388 175.788 5.62021 174.678 5.64338 173.559C5.70824 170.719 5.80091 167.879 5.92138 165.04C5.94918 164.249 5.98624 163.463 6.02794 162.677C6.02794 162.223 6.05111 161.77 6.09745 161.317C6.20864 159.671 6.30131 158.038 6.41251 156.41Z" fill="#9EBCE4"/>
<path opacity="0.1" d="M100.019 96.7874V154.431H64.6626V96.7874H69.7036V77.2709H90.396V96.7874H100.019Z" fill="#9EBCE4"/>
<path opacity="0.1" d="M100.019 156.405H64.6672V220.38H100.019V156.405Z" fill="#9EBCE4"/>
<path opacity="0.1" d="M64.6626 222.364H100.019V275.549C95.8487 276.745 91.5987 277.646 87.3009 278.245L86.2445 278.375C85.7256 278.435 85.2113 278.486 84.7016 278.537C84.192 278.587 83.6638 278.624 83.1495 278.657H82.9873C82.7649 278.657 82.524 278.685 82.3062 278.689H82.0699C81.7919 278.689 81.5139 278.717 81.2359 278.726C80.8421 278.749 80.4483 278.754 80.0452 278.759C79.8737 278.759 79.7116 278.759 79.5401 278.759C79.1417 278.759 78.7478 278.759 78.3494 278.759H77.4737C77.2374 278.759 77.0103 278.759 76.7648 278.759L75.8705 278.726C75.4072 278.726 74.9068 278.675 74.4249 278.643L73.5354 278.578L72.428 278.476C71.6496 278.407 70.8758 278.319 70.1113 278.213L69.1847 278.083L68.7213 278.019C67.9476 277.898 67.1831 277.769 66.4047 277.621C65.8348 277.524 65.2695 277.404 64.695 277.288L64.6626 222.364Z" fill="#9EBCE4"/>
<path opacity="0.1" d="M321.033 89.9797H291.88V154.426H321.033V89.9797Z" fill="#9EBCE4"/>
<path opacity="0.1" d="M321.038 156.405V220.385H176.335V192.789H253.41V209.068H291.88V156.405H321.038Z" fill="#9EBCE4"/>
<path opacity="0.1" d="M321.497 290.959H321.033V332.929C315.813 332.488 310.608 331.888 305.419 331.13C282.056 327.715 259.281 321.082 237.745 311.419C231.527 308.625 225.436 305.576 219.471 302.271C209.508 296.761 199.962 290.531 190.911 283.628C188.638 281.89 186.394 280.111 184.179 278.291C182.645 277.029 181.121 275.734 179.578 274.476C178.508 273.611 177.428 272.76 176.335 271.946V222.364H291.496C291.417 222.068 291.338 221.772 291.255 221.481C291.343 221.772 291.426 222.068 291.505 222.364H321.033V290.931C321.191 290.936 321.344 290.95 321.497 290.959Z" fill="#9EBCE4"/>
<path opacity="0.1" d="M397.066 85.1792H378.069V79.2873H386.585V61.7362C387.324 62.0044 388.059 62.2804 388.791 62.564V79.2873H397.066V85.1792Z" fill="#9EBCE4"/>
<path opacity="0.1" d="M442.834 154.431H349.574C349.574 154.431 349.574 154.431 349.607 154.454L349.565 154.431H332.264V89.9843H337.166V137.62H359.569V109.408H378.074V87.1586H397.071V109.427H415.576V137.638H442.834V154.431Z" fill="#9EBCE4"/>
<path opacity="0.1" d="M332.264 156.405V220.385H442.834V156.405H332.264ZM472.848 295.695L473.001 245.053H442.834V222.392H332.264V333.618C341.329 333.998 350.409 333.89 359.462 333.294H359.619C363.944 333.023 368.248 332.628 372.533 332.11H372.63C395.486 329.455 417.836 323.502 438.979 314.439" fill="#9EBCE4"/>
<path opacity="0.1" d="M486.188 222.364H511.981C511.754 235.355 509.141 248.115 503.424 259.899C498.665 269.689 492.054 278.25 484.242 285.728V245.03H486.188V222.364Z" fill="#9EBCE4"/>
<path opacity="0.1" d="M511.995 220.385H486.188V166.917H500.153C507.381 183.775 511.972 202.274 511.995 220.385Z" fill="#9EBCE4"/>
<path opacity="0.1" d="M321.038 107.896H305.419V128.102H321.038V107.896Z" fill="#9EBCE4"/>
<path opacity="0.1" d="M321.038 149.778H305.419V154.431H321.038V149.778Z" fill="#9EBCE4"/>
<path opacity="0.1" d="M321.038 156.405H305.419V169.979H321.038V156.405Z" fill="#9EBCE4"/>
<path opacity="0.1" d="M321.038 191.66H305.419V211.866H321.038V191.66Z" fill="#9EBCE4"/>
<path opacity="0.1" d="M321.038 233.542H305.419V253.748H321.038V233.542Z" fill="#9EBCE4"/>
<path opacity="0.1" d="M321.033 290.931C321.191 290.931 321.344 290.931 321.497 290.959H321.033V295.653H305.419V275.424H321.033V290.931Z" fill="#9EBCE4"/>
<path opacity="0.1" d="M321.033 317.297V332.906C315.813 332.465 310.608 331.865 305.419 331.106V317.297H321.033Z" fill="#9EBCE4"/>
<path opacity="0.1" d="M243.272 218.9H176.335V220.385H243.272V218.9Z" fill="#9EBCE4"/>
<path opacity="0.1" d="M243.272 222.359H176.335V228.048H243.272V222.359Z" fill="#9EBCE4"/>
<path opacity="0.1" d="M243.272 246.695H176.335V255.843H243.272V246.695Z" fill="#9EBCE4"/>
<path opacity="0.1" d="M243.268 274.49V283.638H190.911C188.638 281.905 186.392 280.126 184.174 278.301C182.641 277.038 181.121 275.743 179.573 274.49H243.268Z" fill="#9EBCE4"/>
<path opacity="0.1" d="M243.268 302.28V311.419H237.74C231.528 308.622 225.439 305.572 219.471 302.266L243.268 302.28Z" fill="#9EBCE4"/>
<path opacity="0.1" d="M372.644 162.607H359.467V175.76H372.644V162.607Z" fill="#9EBCE4"/>
<path opacity="0.1" d="M87.3334 101.324H74.1562V114.477H87.3334V101.324Z" fill="#9EBCE4"/>
<path opacity="0.1" d="M87.3334 131.876H74.1562V145.028H87.3334V131.876Z" fill="#9EBCE4"/>
<path opacity="0.1" d="M87.3334 162.427H74.1562V175.58H87.3334V162.427Z" fill="#9EBCE4"/>
<path opacity="0.1" d="M87.3334 192.974H74.1562V206.126H87.3334V192.974Z" fill="#9EBCE4"/>
<path opacity="0.1" d="M87.3334 223.525H74.1562V236.678H87.3334V223.525Z" fill="#9EBCE4"/>
<path opacity="0.1" d="M87.3334 254.076H74.1562V267.229H87.3334V254.076Z" fill="#9EBCE4"/>
<path opacity="0.1" d="M422.948 162.607H409.77V175.76H422.948V162.607Z" fill="#9EBCE4"/>
<path opacity="0.1" d="M372.644 195.05H359.467V208.203H372.644V195.05Z" fill="#9EBCE4"/>
<path opacity="0.1" d="M422.948 195.05H409.77V208.203H422.948V195.05Z" fill="#9EBCE4"/>
<path opacity="0.1" d="M372.644 227.488H359.467V240.641H372.644V227.488Z" fill="#9EBCE4"/>
<path opacity="0.1" d="M422.948 227.488H409.77V240.641H422.948V227.488Z" fill="#9EBCE4"/>
<path opacity="0.1" d="M372.644 259.931H359.467V273.084H372.644V259.931Z" fill="#9EBCE4"/>
<path opacity="0.1" d="M422.948 259.931H409.77V273.084H422.948V259.931Z" fill="#9EBCE4"/>
<path opacity="0.1" d="M372.644 292.374H359.467V305.527H372.644V292.374Z" fill="#9EBCE4"/>
<path opacity="0.1" d="M422.948 292.374H409.77V305.527H422.948V292.374Z" fill="#9EBCE4"/>
<path opacity="0.1" d="M359.467 333.294V324.812H372.639V332.087L359.467 333.294Z" fill="#9EBCE4"/>
<path opacity="0.1" d="M8.33997 137.99V145.514H53.436V137.99H8.33997ZM12.8343 145.042H9.15543V138.452H12.8621L12.8343 145.042ZM17.324 145.042H13.6173V138.452H17.324V145.042ZM21.8044 145.042H18.0977V138.452H21.8044V145.042ZM26.2941 145.042H22.592V138.452H26.2987L26.2941 145.042ZM30.7791 145.042H27.0725V138.452H30.7791V145.042ZM35.2688 145.042H31.5621V138.452H35.2688V145.042ZM39.7585 145.042H36.0518V138.452H39.7585V145.042ZM44.2435 145.042H40.5369V138.452H44.2435V145.042ZM48.7286 145.042H45.0219V138.452H48.7286V145.042ZM53.2136 145.042H49.507V138.452H53.2136V145.042Z" fill="#9EBCE4"/>
<path opacity="0.1" d="M8.33997 159.883V167.408H53.436V159.883H8.33997ZM12.8343 166.931H9.15543V160.36H12.8621L12.8343 166.931ZM17.324 166.931H13.6173V160.36H17.324V166.931ZM21.8044 166.931H18.0977V160.36H21.8044V166.931ZM26.2941 166.931H22.592V160.36H26.2987L26.2941 166.931ZM30.7791 166.931H27.0725V160.36H30.7791V166.931ZM35.2688 166.931H31.5621V160.36H35.2688V166.931ZM39.7585 166.931H36.0518V160.36H39.7585V166.931ZM44.2435 166.931H40.5369V160.36H44.2435V166.931ZM48.7286 166.931H45.0219V160.36H48.7286V166.931ZM53.2136 166.931H49.507V160.36H53.2136V166.931Z" fill="#9EBCE4"/>
<path opacity="0.1" d="M8.33997 181.786V189.325H53.436V181.786H8.33997ZM12.8343 188.834H9.15543V182.258H12.8621L12.8343 188.834ZM17.324 188.834H13.6173V182.258H17.324V188.834ZM21.8044 188.834H18.0977V182.258H21.8044V188.834ZM26.2941 188.834H22.592V182.258H26.2987L26.2941 188.834ZM30.7791 188.834H27.0725V182.258H30.7791V188.834ZM35.2688 188.834H31.5621V182.258H35.2688V188.834ZM39.7585 188.834H36.0518V182.258H39.7585V188.834ZM44.2435 188.834H40.5369V182.258H44.2435V188.834ZM48.7286 188.834H45.0219V182.258H48.7286V188.834ZM53.2136 188.834H49.507V182.258H53.2136V188.834Z" fill="#9EBCE4"/>
<path opacity="0.1" d="M8.33997 203.689V211.204H53.436V203.689H8.33997ZM12.8343 210.737H9.15543V204.156H12.8621L12.8343 210.737ZM17.324 210.737H13.6173V204.156H17.324V210.737ZM21.8044 210.737H18.0977V204.156H21.8044V210.737ZM26.2941 210.737H22.592V204.156H26.2987L26.2941 210.737ZM30.7791 210.737H27.0725V204.156H30.7791V210.737ZM35.2688 210.737H31.5621V204.156H35.2688V210.737ZM39.7585 210.737H36.0518V204.156H39.7585V210.737ZM44.2435 210.737H40.5369V204.156H44.2435V210.737ZM48.7286 210.737H45.0219V204.156H48.7286V210.737ZM53.2136 210.737H49.507V204.156H53.2136V210.737Z" fill="#9EBCE4"/>
<path opacity="0.1" d="M8.53457 225.588C8.71527 226.295 8.91913 227.003 9.13226 227.701V226.059H12.8389V232.636H10.8559C10.9161 232.788 10.9763 232.955 11.0366 233.098H53.436V225.588H8.53457ZM17.3379 232.636H13.6312V226.059H17.3379V232.636ZM21.8183 232.636H18.1116V226.059H21.8183V232.636ZM26.308 232.636H22.592V226.059H26.2987L26.308 232.636ZM30.793 232.636H27.0864V226.059H30.793V232.636ZM35.2827 232.636H31.576V226.059H35.2827V232.636ZM39.7724 232.636H36.0657V226.059H39.7724V232.636ZM44.2574 232.636H40.5508V226.059H44.2574V232.636ZM48.7425 232.636H45.0358V226.059H48.7425V232.636ZM53.2275 232.636H49.5209V226.059H53.2275V232.636Z" fill="#9EBCE4"/>
<path opacity="0.1" d="M19.0059 247.49C19.1217 247.638 19.2329 247.805 19.3534 247.953H21.8044V251.112C22.0685 251.426 22.328 251.741 22.5967 252.037V247.934H26.3033V254.534H24.8021C24.9504 254.687 25.094 254.848 25.2655 254.996H53.4499V247.49H19.0059ZM30.7791 254.534H27.0725V247.962H30.7791V254.534ZM35.2688 254.534H31.5622V247.962H35.2688V254.534ZM39.7585 254.534H36.0518V247.962H39.7585V254.534ZM44.2435 254.534H40.5369V247.962H44.2435V254.534ZM48.7286 254.534H45.0219V247.962H48.7286V254.534ZM53.2136 254.534H49.507V247.962H53.2136V254.534Z" fill="#9EBCE4"/>
<path opacity="0.1" d="M43.7431 269.389C44.1648 269.629 44.5957 269.851 45.0312 270.092V269.861H48.7378V271.942L49.5255 272.307V269.861H53.2322V273.861C53.3033 273.896 53.3778 273.924 53.4546 273.944V269.389H43.7431Z" fill="#9EBCE4"/>
<path opacity="0.1" d="M291.255 221.476C291.343 221.772 291.417 222.068 291.5 222.359C291.426 222.068 291.348 221.772 291.255 221.476ZM69.7221 85.1653V87.1401H90.4192V85.1653H69.7221ZM291.255 221.476C291.343 221.772 291.417 222.068 291.5 222.359C291.426 222.068 291.348 221.772 291.255 221.476ZM291.255 221.476C291.343 221.772 291.417 222.068 291.5 222.359C291.426 222.068 291.348 221.772 291.255 221.476Z" fill="#9EBCE4"/>
<path d="M213.874 175.589C213.874 175.589 212.048 175.335 212.048 172.68C212.048 170.025 210.742 165.068 210.742 165.068C210.742 165.044 209.611 156.433 208.05 155.064C206.488 153.695 204.482 145.657 204.482 145.657C204.482 145.657 204.139 141.296 203.44 140.357C202.74 139.419 201.795 137.12 200.4 133.841C199.006 130.562 193.191 128.291 193.191 128.291C193.191 128.291 182.678 122.205 179.699 120.221C179.428 120.058 179.175 119.867 178.943 119.652C178.424 118.972 176.163 118.959 176.163 118.959C175.927 117.469 175.7 115.758 175.626 114.209C175.626 114.042 175.626 113.876 175.603 113.709C178.925 111.749 181.427 108.659 182.65 105.006C182.706 104.83 182.752 104.645 182.803 104.469C183.002 104.404 183.185 104.297 183.341 104.157C183.496 104.017 183.621 103.846 183.706 103.655C183.975 103.059 183.98 102.36 184.313 101.805C184.703 101.149 185.444 100.797 186.028 100.302C187.501 99.0535 187.881 96.9492 187.811 95.0346C187.765 93.4853 187.515 91.9221 187.612 90.382L187.64 89.9936C187.668 89.7623 187.7 89.5311 187.742 89.3091C187.969 88.1621 188.465 87.0799 188.743 85.9423C189.021 84.8046 189.049 83.5235 188.4 82.543C187.45 81.1047 185.472 80.818 183.734 80.67C181.765 80.5035 180.004 80.7209 178.744 79.0883C178.154 78.2351 177.491 77.435 176.761 76.6973C176.502 76.4568 173.981 74.9214 173.981 74.8197C171.521 73.6824 168.733 73.4689 166.128 74.2184C164.821 74.5977 163.589 75.2174 162.263 75.5272C159.405 76.2025 156.115 75.4717 153.687 77.1043C152.334 78.0293 151.523 79.4999 150.763 80.9336C150.146 82.1145 149.519 83.2938 148.882 84.4716C147.858 86.4094 146.816 88.3795 146.385 90.5254C146.294 90.9924 146.239 91.4654 146.218 91.9406V91.9637C146.218 92.1348 146.218 92.3059 146.218 92.4771V92.6944C146.218 92.8563 146.218 93.0135 146.246 93.1569C146.274 93.3003 146.269 93.3465 146.283 93.4436C146.297 93.5408 146.32 93.7581 146.348 93.9061C146.376 94.0541 146.431 94.3131 146.487 94.5166C146.51 94.6045 146.543 94.6877 146.57 94.7709C146.617 94.9282 146.672 95.0808 146.732 95.2334C146.765 95.312 146.797 95.3953 146.834 95.4739C146.904 95.6358 146.987 95.793 147.071 95.9364C147.108 96.0011 147.136 96.0613 147.173 96.1214C147.302 96.3365 147.444 96.5434 147.599 96.7411C148.59 97.9759 150.05 98.7621 151.13 99.9183C151.13 99.9646 151.13 100.011 151.13 100.052C151.13 100.182 151.13 100.307 151.13 100.436C151.187 103.015 151.874 105.54 153.132 107.793C154.391 110.046 156.181 111.958 158.348 113.363C158.348 113.538 158.371 113.719 158.381 113.894C158.471 115.267 158.454 116.645 158.33 118.015C158.141 117.793 157.905 117.617 157.639 117.498C157.372 117.38 157.083 117.322 156.791 117.331C156.592 117.321 156.393 117.338 156.198 117.382L156.157 117.349V117.391C155.137 117.64 153.882 118.7 152.682 121.71C152.682 121.71 149.031 125.817 146.251 125.646C143.471 125.475 136.433 129.919 136.433 129.919C136.433 129.919 129.566 134.368 128.093 138.901C127.269 141.471 126.282 143.985 125.137 146.43L116.648 163.888L115.082 177.74C115.082 177.74 115.949 183.9 115.777 184.839C115.606 185.777 119.34 194.245 119.34 194.245C119.34 194.245 131.679 215.885 136.72 216.995L137.081 216.74C137.297 216.853 137.526 216.938 137.762 216.995L138.8 216.264C138.863 217.078 138.836 217.897 138.721 218.706C138.026 220.842 138.981 234.786 140.195 237.519C141.409 240.253 140.978 276.09 140.978 276.09L140.806 279.253C140.806 279.253 140.806 279.355 140.848 279.531L140.806 280.28L140.932 280.345C141.061 281.348 141.019 282.366 140.806 283.356C140.371 284.743 140.195 288.665 140.195 288.665C140.195 288.665 136.725 310.808 138.369 315.257C140.014 319.706 141.413 324.581 141.413 324.581C141.413 324.581 143.151 330.131 141.497 331.079C139.843 332.027 135.14 333.618 136.108 335.93C136.989 338.067 140.329 343.792 140.825 344.629L140.783 345.069L140.102 352.436C140.213 353.409 140.477 354.358 140.885 355.248C141.631 356.853 143.081 358.518 145.838 358.337C146.302 358.305 146.839 358.249 147.358 358.18C152.404 357.505 158.617 355.257 158.617 355.257C158.294 355.053 157.999 354.809 157.737 354.531C157.489 354.291 157.292 354.004 157.159 353.685C157.026 353.367 156.959 353.026 156.963 352.681C157.037 351.34 154.521 344.948 153.896 343.376C153.798 343.149 153.747 343.02 153.747 343.02C153.747 343.02 159.483 337.035 158.529 331.731C158.529 331.731 152.181 328.031 154.271 326.001C156.361 323.97 160.095 318.139 160.095 318.139C160.095 318.139 160.266 296.333 160.095 293.077C159.916 290.817 160.024 288.544 160.415 286.311C160.484 285.973 160.568 285.645 160.656 285.321C163.546 285.752 166.463 285.973 169.385 285.982C170.45 285.982 171.535 285.982 172.628 285.918C172.628 286.226 172.642 286.559 172.67 286.917C172.911 292.318 173.36 301.79 173.726 305.309C174.245 310.355 177.113 323.952 177.113 323.952C177.113 323.952 171.641 327.458 178.068 336.097C178.068 336.097 178.068 339.228 177.641 339.681C177.186 341.162 176.82 342.67 176.543 344.195C176.275 345.823 176.163 347.469 176.599 348.325C177.641 350.369 183.896 350.202 183.896 350.202L184.049 350.174C185.23 350.053 186.423 350.166 187.56 350.508C188.697 350.85 189.754 351.414 190.67 352.168C193.047 354.073 202.068 353.236 206.952 352.63C208.865 352.39 210.144 352.168 210.144 352.168C210.206 351.952 210.228 351.726 210.209 351.502C210.158 350.304 209.217 347.677 202.842 345.332C202.842 345.332 196.846 341.309 196.93 337.803H196.805H196.11C196.615 337.775 196.939 337.803 196.939 337.803C196.939 337.803 194.59 329.247 195.549 328.554C196.508 327.86 193.636 318.379 193.636 318.379C193.636 318.379 191.991 302.47 191.903 301.355C191.906 300.399 192.052 299.448 192.334 298.534L191.903 289.812C191.903 289.812 191.819 286.912 191.903 285.969C191.889 285.15 191.822 284.333 191.703 283.522C191.662 283.198 191.62 282.861 191.574 282.528C193.821 281.959 195.28 281.432 195.28 281.432L195.021 251.07C196.93 247.37 197.282 239.254 197.273 233.496C197.273 229.796 197.106 227.058 197.106 227.058L199.714 222.808C199.714 222.808 200.317 217.721 199.362 216.606C198.941 216.102 199.131 215.579 199.478 215.149C199.659 215.007 199.849 214.877 200.048 214.761C200.048 214.761 200.02 214.719 199.988 214.659C200.17 214.507 200.364 214.37 200.567 214.248C200.567 214.248 199.64 212.814 200.47 212.208C201.248 212.735 201.943 213.133 202.471 213.457C202.434 213.794 202.397 213.989 202.397 213.989L202.62 213.526C203.129 213.813 203.44 213.989 203.44 213.989C203.44 213.989 207.526 205.863 207.438 204.665C207.35 203.467 210.218 198.422 210.218 198.422C210.218 198.422 210.566 195.772 212.132 194.662C213.698 193.552 213.346 185.509 213.346 185.509C213.346 185.509 213.781 181.319 214.824 179.608C215.866 177.897 213.874 175.589 213.874 175.589ZM135.682 172.023L135.761 173.961C135.297 173.216 134.964 172.68 134.964 172.68L135.682 172.023Z" fill="url(#paint0_linear_30_7)"/>
<path d="M203.662 210.478L202.661 214.733C202.661 214.733 194.646 210.649 193.2 205.46C191.754 200.271 195.619 198.301 195.619 198.301L203.087 201.46L203.662 210.478Z" fill="white"/>
<path opacity="0.1" d="M203.662 210.478L202.661 214.733C202.661 214.733 194.646 210.649 193.2 205.46C191.754 200.271 195.619 198.301 195.619 198.301L203.087 201.46L203.662 210.478Z" fill="black"/>
<path d="M158.677 355.285C158.677 355.285 151.264 358.004 146.167 358.346C143.461 358.527 142.039 356.871 141.307 355.276C140.907 354.389 140.649 353.444 140.542 352.478L141.205 345.147L141.557 341.244L152.385 338.437L153.919 343.117L154.062 343.473C154.679 345.036 157.148 351.395 157.074 352.723C157.071 353.063 157.137 353.4 157.267 353.713C157.398 354.027 157.591 354.312 157.834 354.55C158.083 354.829 158.366 355.077 158.677 355.285Z" fill="white"/>
<path d="M209.315 351.557C209.333 351.78 209.311 352.004 209.25 352.219C209.25 352.219 193.395 354.859 190.151 352.219C189.237 351.447 188.171 350.875 187.022 350.539C185.873 350.203 184.666 350.11 183.479 350.267C183.479 350.267 177.345 350.433 176.321 348.417C175.895 347.571 176.006 345.929 176.27 344.31C176.539 342.794 176.898 341.294 177.345 339.82L177.59 339.625L179.05 338.455L196.138 337.951H196.267C196.184 341.438 202.068 345.439 202.068 345.439C208.319 347.751 209.241 350.364 209.315 351.557Z" fill="white"/>
<path opacity="0.1" d="M209.315 351.557C209.331 351.78 209.307 352.004 209.245 352.219C209.245 352.219 193.395 354.859 190.151 352.219C189.237 351.448 188.172 350.876 187.024 350.54C185.876 350.204 184.67 350.111 183.484 350.267C183.484 350.267 177.345 350.433 176.325 348.417C175.899 347.566 176.006 345.929 176.27 344.31C178.633 344.546 182.363 345.133 183.827 346.535C186.042 348.667 189.795 350.794 192.097 350.961C193.9 351.076 204.681 351.418 209.315 351.557Z" fill="black"/>
<path opacity="0.1" d="M158.677 355.285C158.677 355.285 151.264 358.004 146.167 358.346C143.461 358.527 142.039 356.871 141.312 355.271C143.197 355.905 145.815 356.571 147.191 355.96C148.822 355.239 154.605 354.771 157.848 354.573C158.095 354.842 158.373 355.081 158.677 355.285Z" fill="black"/>
<path d="M169.677 136.14C163.561 133.767 155.693 125.928 157.658 122.265C158.094 121.341 158.353 120.343 158.422 119.324C158.549 117.94 158.567 116.548 158.478 115.162C158.34 112.89 158.066 110.63 157.658 108.391C157.658 108.391 176.752 108.821 175.64 111.628C175.315 112.452 175.264 113.881 175.353 115.481C175.441 117.081 175.672 118.889 175.913 120.42C176.247 122.52 176.58 124.12 176.58 124.12C176.58 124.12 175.413 125.752 174.727 125.84C174.041 125.928 178.452 139.52 169.677 136.14Z" fill="#CF6F80"/>
<path opacity="0.1" d="M154.049 343.473L153.905 343.63C148.197 336.739 141.293 345.328 141.293 345.328L141.191 345.147L141.543 341.244L152.371 338.437L153.905 343.117L154.049 343.473Z" fill="black"/>
<path opacity="0.1" d="M196.272 338.437C196.272 338.437 192.102 338.349 189.878 340.31C187.654 342.271 176.905 340.735 177.368 340.31C177.505 340.099 177.588 339.857 177.609 339.607L179.068 338.437L196.156 337.933C196.221 338.242 196.272 338.437 196.272 338.437Z" fill="black"/>
<path d="M161.151 284.322C160.841 285.089 160.605 285.883 160.447 286.695C160.061 288.917 159.953 291.179 160.127 293.428C160.299 296.666 160.127 318.361 160.127 318.361C160.127 318.361 156.462 324.146 154.419 326.186C152.376 328.225 158.589 331.888 158.589 331.888C159.516 337.16 153.9 343.117 153.9 343.117C148.192 336.226 141.288 344.819 141.288 344.819C141.288 344.819 137.535 338.344 136.599 336.032C135.664 333.719 140.264 332.119 141.881 331.18C143.498 330.242 141.803 324.706 141.803 324.706C141.803 324.706 140.436 319.854 138.814 315.428C137.193 311.003 140.603 288.97 140.603 288.97C140.603 288.97 140.779 285.058 141.2 283.693C141.413 282.709 141.455 281.695 141.325 280.696C141.298 280.359 141.265 280.077 141.242 279.887C141.219 279.697 141.2 279.61 141.2 279.61L141.265 279.499L143.582 275.188C143.582 275.188 162.263 281.607 161.151 284.322Z" fill="#9EBCE4"/>
<path d="M196.272 337.928C196.272 337.928 192.102 337.84 189.878 339.778C187.654 341.716 176.905 340.203 177.368 339.778C177.831 339.352 177.794 336.203 177.794 336.203C171.488 327.61 176.868 324.123 176.868 324.123C176.868 324.123 174.051 310.596 173.541 305.578C173.184 302.072 172.744 292.651 172.508 287.273C172.406 284.96 172.345 283.369 172.345 283.369L177.498 282.334L178.16 282.199L190.587 279.711C190.587 279.711 190.93 282.024 191.161 283.915C191.277 284.723 191.342 285.537 191.356 286.352C191.273 287.277 191.356 290.173 191.356 290.173L191.778 298.853C191.502 299.764 191.36 300.709 191.356 301.661C191.439 302.766 193.056 318.592 193.056 318.592C193.056 318.592 195.869 328.036 194.91 328.715C193.951 329.395 196.272 337.928 196.272 337.928Z" fill="#9EBCE4"/>
<path opacity="0.1" d="M175.64 111.628C175.315 112.452 175.264 113.881 175.352 115.481C172.795 117.018 169.855 117.804 166.87 117.748C163.885 117.693 160.976 116.798 158.478 115.166C158.34 112.894 158.067 110.631 157.658 108.391C157.658 108.391 176.752 108.812 175.64 111.628Z" fill="black"/>
<path d="M183.021 101.408C183.024 103.074 182.762 104.731 182.242 106.314C181.081 109.863 178.701 112.888 175.522 114.855C172.343 116.821 168.569 117.603 164.869 117.061C161.168 116.519 157.779 114.689 155.299 111.894C152.82 109.099 151.41 105.519 151.319 101.787C151.319 101.657 151.319 101.537 151.319 101.408C151.284 99.3068 151.667 97.2199 152.447 95.2686C153.228 93.3174 154.39 91.5407 155.866 90.0424C157.341 88.5441 159.101 87.3541 161.042 86.5417C162.984 85.7294 165.067 85.311 167.172 85.311C169.277 85.311 171.361 85.7294 173.302 86.5417C175.244 87.3541 177.003 88.5441 178.479 90.0424C179.955 91.5407 181.117 93.3174 181.897 95.2686C182.678 97.2199 183.061 99.3068 183.025 101.408H183.021Z" fill="#CF6F80"/>
<path opacity="0.1" d="M169.677 136.14C163.561 133.767 155.693 125.928 157.658 122.265C158.094 121.341 158.353 120.343 158.422 119.324L166.795 126.192L171.975 130.433L175.913 120.425C176.247 122.524 176.58 124.124 176.58 124.124C176.58 124.124 175.413 125.757 174.727 125.845C174.041 125.933 178.452 139.52 169.677 136.14Z" fill="black"/>
<path d="M191.328 166.492L184.336 283.73L175.218 284.327L151.607 216.347L155.48 135.64L156.296 118.589L166.795 127.195L171.979 131.436L176.034 121.137L183.572 127.695L191.328 166.492Z" fill="#9EBCE4"/>
<path opacity="0.1" d="M161.151 284.322C160.841 285.089 160.605 285.883 160.447 286.695C153.812 285.672 147.368 283.663 141.33 280.733L141.205 280.669L141.247 279.924L141.27 279.536L143.586 275.225C143.586 275.225 162.263 281.607 161.151 284.322Z" fill="black"/>
<path opacity="0.1" d="M177.604 286.713C175.908 287.001 174.197 287.196 172.48 287.296C172.378 284.984 172.318 283.393 172.318 283.393L177.47 282.357L177.604 286.713Z" fill="black"/>
<path opacity="0.1" d="M191.134 283.938C187.839 284.794 182.752 285.756 178.197 285.155L178.132 282.223L190.559 279.734C190.559 279.734 190.902 282.024 191.134 283.938Z" fill="black"/>
<path opacity="0.1" d="M178.114 285.691C159.117 288.929 141.719 279.647 141.719 279.647L141.886 276.502C141.886 276.502 142.317 240.849 141.122 238.116C139.926 235.383 138.995 221.522 139.671 219.395C140.348 217.268 137.202 185.366 137.202 185.366L136.692 172.416L118.038 164.873L126.378 147.521C127.505 145.088 128.474 142.586 129.279 140.029C130.729 135.525 137.461 131.099 137.461 131.099C137.461 131.099 144.365 126.677 147.094 126.844C149.823 127.01 153.4 122.931 153.4 122.931C156.041 116.212 158.432 119.255 158.432 119.255C158.432 119.574 158.432 119.255 158.302 120.249C157.375 127.625 173.286 150.934 173.513 151.346L175.028 188.187L176.562 234.809L178.114 285.691Z" fill="black"/>
<path d="M177.604 285.691C158.608 288.928 141.205 279.647 141.205 279.647L141.376 276.502C141.376 276.502 141.807 240.849 140.607 238.116C139.407 235.383 138.481 221.522 139.162 219.395C139.843 217.268 136.692 185.366 136.692 185.366L136.178 172.416L117.515 164.846L125.855 147.493C126.979 145.06 127.948 142.557 128.755 140.001C130.201 135.497 136.938 131.071 136.938 131.071C136.938 131.071 143.841 126.65 146.566 126.816C149.29 126.983 152.872 122.903 152.872 122.903C155.517 116.184 158.432 119.227 158.432 119.227C158.432 119.546 158.154 119.689 158.302 120.221C160.341 127.376 172.776 150.907 173.003 151.318L174.537 188.159L176.071 234.782L177.604 285.691Z" fill="white"/>
<path opacity="0.1" d="M172.484 152.368C170.441 151.517 159.618 139.183 159.618 139.183V136.376C159.224 135.451 156.884 136.015 154.984 136.662L155.8 119.611L156.727 120.378C158.756 127.528 172.248 151.956 172.484 152.368Z" fill="black"/>
<path d="M172.999 151.346C170.951 150.495 160.127 138.161 160.127 138.161V135.353C159.734 134.428 157.394 134.993 155.494 135.64L156.314 118.589L157.241 119.356C159.275 126.506 172.772 150.939 172.999 151.346Z" fill="white"/>
<path opacity="0.1" d="M141.719 212.86C141.974 212.86 154.929 211.5 154.929 211.5C154.929 211.5 162.773 226.896 162.259 230.642C161.744 234.389 160.813 237.704 157.658 237.117C154.503 236.53 140.677 237.58 140.677 237.58L141.719 212.86Z" fill="black"/>
<path d="M141.205 211.838C141.46 211.838 154.415 210.478 154.415 210.478C154.415 210.478 162.254 225.879 161.744 229.62C161.235 233.362 160.294 236.682 157.144 236.095C153.993 235.508 140.162 236.557 140.162 236.557L141.205 211.838Z" fill="white"/>
<path d="M150.967 204.609C150.967 204.609 162.856 210.987 163.111 212.934C163.366 214.881 157.06 212.083 155.698 211.746C154.801 211.53 153.889 211.388 152.969 211.32L143.883 211.565L150.967 204.609Z" fill="#CF6F80"/>
<path opacity="0.1" d="M169.167 153.163C169.858 153.163 170.418 152.604 170.418 151.915C170.418 151.225 169.858 150.666 169.167 150.666C168.476 150.666 167.916 151.225 167.916 151.915C167.916 152.604 168.476 153.163 169.167 153.163Z" fill="black"/>
<path d="M169.167 152.655C169.858 152.655 170.418 152.096 170.418 151.406C170.418 150.716 169.858 150.157 169.167 150.157C168.476 150.157 167.916 150.716 167.916 151.406C167.916 152.096 168.476 152.655 169.167 152.655Z" fill="#3F3D56"/>
<path opacity="0.1" d="M171.47 207.218C172.161 207.218 172.721 206.659 172.721 205.969C172.721 205.28 172.161 204.72 171.47 204.72C170.779 204.72 170.219 205.28 170.219 205.969C170.219 206.659 170.779 207.218 171.47 207.218Z" fill="black"/>
<path d="M171.47 206.705C172.161 206.705 172.721 206.145 172.721 205.456C172.721 204.766 172.161 204.207 171.47 204.207C170.779 204.207 170.219 204.766 170.219 205.456C170.219 206.145 170.779 206.705 171.47 206.705Z" fill="#3F3D56"/>
<path opacity="0.1" d="M170.413 180.191C171.104 180.191 171.664 179.632 171.664 178.942C171.664 178.252 171.104 177.693 170.413 177.693C169.722 177.693 169.162 178.252 169.162 178.942C169.162 179.632 169.722 180.191 170.413 180.191Z" fill="black"/>
<path d="M170.413 179.682C171.104 179.682 171.664 179.123 171.664 178.433C171.664 177.744 171.104 177.185 170.413 177.185C169.722 177.185 169.162 177.744 169.162 178.433C169.162 179.123 169.722 179.682 170.413 179.682Z" fill="#3F3D56"/>
<path d="M199.251 211.061C199.251 211.061 200.104 212.338 199.251 212.934C198.399 213.531 199.335 214.974 199.335 214.974C199.335 214.974 197.208 216.218 198.144 217.337C199.08 218.456 198.487 223.511 198.487 223.511L195.929 227.738C195.929 227.738 196.082 230.462 196.091 234.143C196.091 239.887 195.753 247.962 193.881 251.644L194.141 281.848C194.141 281.848 185.184 285.113 177.688 284.119L176.576 235.651C176.576 235.651 178.197 208.166 178.795 202.894C179.145 200.157 179.287 197.397 179.221 194.639C179.221 194.639 178.966 186.388 178.109 182.559C178.109 182.559 177.183 165.969 177.09 161.377C177.048 159.18 177.164 152.77 177.294 146.675C177.437 140.011 177.6 133.726 177.6 133.726L175.908 120.369C175.908 120.369 177.6 120.198 178.109 120.878C178.338 121.091 178.586 121.281 178.851 121.447C181.77 123.417 192.083 129.475 192.083 129.475C192.083 129.475 197.792 131.742 199.158 134.988C200.525 138.235 201.475 140.538 202.138 141.463C202.8 142.388 203.162 146.735 203.162 146.735C203.162 146.735 205.126 154.736 206.66 156.091C208.193 157.446 209.315 166.067 209.315 166.067L195.762 176.704C195.762 176.704 194.571 194.398 194.317 195.082C194.062 195.767 199.251 211.061 199.251 211.061Z" fill="white"/>
<path d="M199.765 211.061C199.765 211.061 200.613 212.337 199.765 212.934C198.918 213.531 199.844 214.974 199.844 214.974C199.844 214.974 197.731 216.232 198.658 217.351C199.585 218.47 199.001 223.525 199.001 223.525L196.443 227.752C196.443 227.752 196.596 230.476 196.61 234.157C196.61 239.901 196.272 247.976 194.4 251.657L194.655 281.862C194.655 281.862 185.685 285.127 178.197 284.133L177.09 235.665C177.09 235.665 178.712 208.18 179.309 202.908C179.66 200.17 179.8 197.411 179.731 194.652C179.731 194.652 179.476 186.402 178.624 182.572C178.624 182.572 177.697 165.983 177.6 161.391C177.558 159.194 177.678 152.784 177.804 146.689C177.947 140.024 178.109 133.739 178.109 133.739L175.876 120.203C175.876 120.203 178.109 120.203 178.624 120.892C178.85 121.107 179.098 121.298 179.365 121.461C182.284 123.431 192.602 129.489 192.602 129.489C192.602 129.489 198.306 131.755 199.673 135.002C201.04 138.249 201.989 140.552 202.657 141.477C203.324 142.402 203.676 146.749 203.676 146.749C203.676 146.749 205.64 154.75 207.174 156.105C208.708 157.46 209.815 166.062 209.815 166.062L196.263 176.699C196.263 176.699 195.072 194.393 194.812 195.078C194.553 195.762 199.765 211.061 199.765 211.061Z" fill="white"/>
<path opacity="0.1" d="M183.535 137.666L184.758 141.227L178.318 147.702C178.461 141.042 178.624 134.752 178.624 134.752L176.39 121.215C176.39 121.215 178.624 121.215 179.138 121.905C179.363 122.119 179.612 122.309 179.879 122.469L185.356 138.239L183.535 137.666Z" fill="black"/>
<path d="M183.021 136.644L184.248 140.205L177.808 146.679C177.952 140.015 178.114 133.73 178.114 133.73L175.876 120.193C175.876 120.193 178.114 120.193 178.624 120.882C178.851 121.097 179.099 121.287 179.365 121.451L184.846 137.217L183.021 136.644Z" fill="white"/>
<path opacity="0.1" d="M183.021 101.408C183.024 103.074 182.762 104.731 182.242 106.314C182.155 106.328 182.065 106.324 181.979 106.303C181.893 106.281 181.813 106.243 181.742 106.19C181.621 102.027 179.569 98.1193 177.044 94.7941C176.335 93.7902 175.475 92.901 174.495 92.158C173.505 91.4153 172.272 91.0675 171.039 91.1822C169.649 91.3718 168.421 92.3152 167.017 92.4355C165.164 92.5881 163.505 91.307 161.666 91.2423C160.918 91.2494 160.18 91.4156 159.502 91.7298C158.824 92.044 158.22 92.499 157.732 93.0644C156.766 94.2055 156.048 95.5348 155.624 96.9678C154.895 99.1407 154.499 101.411 154.447 103.701C154.424 104.996 154.299 106.62 153.094 107.091C153.185 106.139 153.076 105.178 152.776 104.27C152.475 103.362 151.989 102.525 151.347 101.815L151.319 101.787C151.319 101.657 151.319 101.537 151.319 101.408C151.284 99.3068 151.667 97.2199 152.447 95.2686C153.228 93.3174 154.39 91.5407 155.866 90.0424C157.341 88.5441 159.101 87.3541 161.042 86.5417C162.984 85.7294 165.067 85.311 167.172 85.311C169.277 85.311 171.361 85.7294 173.302 86.5417C175.244 87.3541 177.003 88.5441 178.479 90.0424C179.955 91.5407 181.117 93.3174 181.897 95.2686C182.678 97.2199 183.061 99.3068 183.025 101.408H183.021Z" fill="black"/>
<path d="M173.735 76.2811C171.328 75.1507 168.589 74.9368 166.035 75.6799C164.751 76.0591 163.542 76.6742 162.24 76.9841C159.46 77.6547 156.217 76.9286 153.831 78.5519C152.506 79.4768 151.709 80.9383 150.967 82.3581L149.114 85.8822C148.104 87.8107 147.085 89.7716 146.663 91.8944C146.241 94.0171 146.496 96.3943 147.844 98.1008C148.827 99.3449 150.277 100.126 151.343 101.297C151.981 102.008 152.465 102.844 152.765 103.751C153.065 104.658 153.174 105.618 153.085 106.569C154.294 106.106 154.41 104.478 154.438 103.183C154.489 100.893 154.886 98.6227 155.615 96.4498C156.037 95.0164 156.755 93.6869 157.723 92.5465C158.211 91.9815 158.815 91.5268 159.493 91.2126C160.171 90.8984 160.909 90.732 161.656 90.7243C163.51 90.7891 165.173 92.0655 167.008 91.9129C168.398 91.7972 169.63 90.8492 171.03 90.6642C172.263 90.5477 173.496 90.8957 174.486 91.64C175.466 92.3819 176.324 93.2712 177.03 94.2761C179.56 97.6014 181.612 101.5 181.733 105.672C182.256 106.055 183.011 105.556 183.271 104.964C183.53 104.372 183.54 103.678 183.869 103.114C184.248 102.462 184.976 102.115 185.546 101.625C186.991 100.381 187.353 98.2858 187.297 96.385C187.242 94.4843 186.871 92.5557 187.232 90.6873C187.45 89.5404 187.941 88.4674 188.21 87.3343C188.479 86.2013 188.511 84.9295 187.876 83.9536C186.95 82.5199 184.999 82.2378 183.299 82.1037C181.367 81.9372 179.638 82.15 178.406 80.5267C177.827 79.6796 177.176 78.8842 176.46 78.1495C176.214 77.909 173.735 76.3829 173.735 76.2811Z" fill="#512E4E"/>
<path opacity="0.1" d="M123.376 173.808L118.534 164.873L117.001 178.66C117.001 178.66 117.853 184.783 117.682 185.722C117.51 186.661 121.175 195.078 121.175 195.078C121.175 195.078 133.282 216.602 138.226 217.712L154.929 205.798L150.499 200.184C150.499 200.184 148.966 199.587 148.581 200.184C148.581 200.184 140.357 186.06 139.505 185.037C138.652 184.015 138.819 181.976 138.819 181.976C138.819 181.976 137.54 180.616 137.966 179.34C138.393 178.063 135.497 173.637 135.497 173.637L138.138 171.172L123.376 173.808Z" fill="black"/>
<path d="M118.789 163.856L117.51 164.873L115.977 178.66C115.977 178.66 116.829 184.783 116.658 185.722C116.486 186.661 120.156 195.078 120.156 195.078C120.156 195.078 132.258 216.602 137.202 217.712L153.91 205.798L149.475 200.184C149.475 200.184 147.942 199.587 147.557 200.184C147.557 200.184 139.333 186.06 138.481 185.037C137.628 184.015 137.799 181.976 137.799 181.976C137.799 181.976 136.521 180.616 136.947 179.34C137.373 178.063 134.473 173.637 134.473 173.637L137.114 171.172L118.789 163.856Z" fill="white"/>
<path opacity="0.1" d="M198.144 217.864C199.07 218.988 198.487 224.034 198.487 224.034L195.929 228.261C195.929 228.261 196.082 230.989 196.091 234.666L191.791 236.007C191.403 236.128 190.991 236.155 190.59 236.085C190.189 236.015 189.811 235.85 189.486 235.604C189.162 235.358 188.902 235.039 188.726 234.672C188.551 234.305 188.466 233.902 188.479 233.496L189.22 209.627L199.251 213.457C198.399 214.049 199.335 215.501 199.335 215.501C199.335 215.501 197.208 216.74 198.144 217.864Z" fill="black"/>
<path d="M198.658 217.351C199.585 218.475 199.001 223.525 199.001 223.525L196.443 227.752C196.443 227.752 196.596 230.476 196.61 234.157L192.232 235.522C191.851 235.64 191.448 235.665 191.055 235.596C190.663 235.527 190.293 235.366 189.975 235.125C189.658 234.884 189.403 234.571 189.231 234.212C189.06 233.853 188.976 233.459 188.988 233.061L189.734 209.119L199.77 212.948C198.913 213.54 199.849 214.987 199.849 214.987C199.849 214.987 197.731 216.232 198.658 217.351Z" fill="white"/>
<path d="M201.98 205.974C201.98 205.974 201.299 210.317 199.594 210.571C197.889 210.825 197.124 217.596 195.424 217.355C193.724 217.115 194.849 211.061 194.91 209.886C194.97 208.712 193.056 203.846 194.488 202.741C195.92 201.636 200.451 202.741 200.451 202.741L201.98 205.974Z" fill="#CF6F80"/>
<path opacity="0.1" d="M205.608 172.532L208.824 166.057C208.824 166.057 210.102 170.992 210.102 173.628C210.102 176.264 211.891 176.523 211.891 176.523C211.891 176.523 213.851 178.836 212.817 180.519C211.784 182.202 211.367 186.393 211.367 186.393C211.367 186.393 211.705 194.389 210.172 195.494C208.638 196.599 208.319 199.24 208.319 199.24C208.319 199.24 205.501 204.258 205.59 205.451C205.678 206.644 201.67 214.724 201.67 214.724C201.67 214.724 203.63 204.684 192.208 200.345C192.208 200.345 192.12 196.937 192.973 196.003C193.826 195.069 195.155 194.643 194.321 189.921C193.487 185.199 194.08 179.557 194.08 178.424C194.08 177.291 196.638 170.224 196.638 170.224L205.608 172.532Z" fill="black"/>
<path d="M206.998 165.132L209.806 166.057C209.806 166.057 211.089 170.992 211.089 173.628C211.089 176.264 212.878 176.523 212.878 176.523C212.878 176.523 214.838 178.836 213.804 180.519C212.771 182.202 212.359 186.392 212.359 186.392C212.359 186.392 212.697 194.389 211.163 195.494C209.63 196.599 209.287 199.24 209.287 199.24C209.287 199.24 206.474 204.258 206.563 205.451C206.651 206.644 202.638 214.724 202.638 214.724C202.638 214.724 204.603 204.683 193.177 200.345C193.177 200.345 193.093 196.937 193.946 196.003C194.799 195.069 196.128 194.643 195.294 189.921C194.46 185.199 195.053 179.557 195.053 178.424C195.053 177.291 197.611 170.224 197.611 170.224L206.998 165.132Z" fill="white"/>
<path opacity="0.1" d="M144.981 332.952C144.981 332.952 149.457 330.145 152.394 332.184C155.332 334.224 144.981 332.952 144.981 332.952Z" fill="black"/>
<path opacity="0.1" d="M179.759 324.271C179.759 324.271 183.72 323.762 187.047 327.337C190.374 330.912 179.759 324.271 179.759 324.271Z" fill="black"/>
<g opacity="0.1">
<path d="M185.555 100.612C184.985 101.102 184.253 101.454 183.873 102.106C183.549 102.665 183.54 103.355 183.28 103.956C183.021 104.557 182.265 105.047 181.742 104.668C181.621 100.506 179.564 96.5977 177.039 93.2679C176.333 92.2629 175.475 91.3736 174.495 90.6317C173.504 89.8875 172.269 89.5396 171.034 89.6559C169.644 89.8455 168.421 90.789 167.017 90.9046C165.164 91.0618 163.5 89.7808 161.661 89.716C160.914 89.7235 160.176 89.8903 159.499 90.2054C158.821 90.5204 158.219 90.9764 157.732 91.5428C156.765 92.6815 156.047 94.0095 155.624 95.4415C154.896 97.6145 154.499 99.8844 154.447 102.175C154.419 103.466 154.299 105.075 153.103 105.556C153.131 105.898 153.131 106.241 153.103 106.583C154.308 106.12 154.428 104.492 154.456 103.197C154.508 100.906 154.905 98.6365 155.633 96.4636C156.056 95.0302 156.774 93.7007 157.741 92.5603C158.229 91.9954 158.832 91.5407 159.509 91.2266C160.187 90.9124 160.923 90.7459 161.67 90.7381C163.524 90.8029 165.192 92.0793 167.026 91.9267C168.416 91.8111 169.649 90.863 171.044 90.678C172.279 90.5616 173.513 90.9096 174.505 91.6538C175.484 92.3957 176.342 93.285 177.048 94.2899C179.573 97.6152 181.631 101.514 181.751 105.685C182.275 106.069 183.03 105.57 183.289 104.978C183.549 104.386 183.558 103.692 183.882 103.128C184.262 102.476 184.994 102.129 185.564 101.639C187.01 100.395 187.371 98.2996 187.316 96.3988C187.316 96.3387 187.316 96.2786 187.316 96.2231C187.228 97.8695 186.788 99.5483 185.555 100.612Z" fill="black"/>
<path d="M151.352 100.284C150.286 99.1137 148.831 98.3321 147.854 97.0926C147.031 95.9954 146.56 94.6746 146.505 93.3049C146.36 95.0165 146.838 96.7231 147.854 98.1101C148.831 99.3541 150.286 100.136 151.352 101.306C152.375 102.45 152.989 103.901 153.099 105.431C153.17 104.5 153.051 103.564 152.751 102.68C152.451 101.795 151.975 100.98 151.352 100.284Z" fill="black"/>
<path d="M188.219 86.3215C187.946 87.4545 187.459 88.5321 187.237 89.6744C187.105 90.4378 187.057 91.2131 187.093 91.9868C187.109 91.5461 187.157 91.1071 187.237 90.6734C187.459 89.5264 187.946 88.4535 188.219 87.3204C188.379 86.6955 188.43 86.048 188.372 85.4058C188.343 85.7143 188.292 86.0203 188.219 86.3215Z" fill="black"/>
</g>
<path opacity="0.1" d="M61.498 351.756C86.432 351.756 106.645 348.516 106.645 344.518C106.645 340.521 86.432 337.281 61.498 337.281C36.564 337.281 16.351 340.521 16.351 344.518C16.351 348.516 36.564 351.756 61.498 351.756Z" fill="#9EBCE4"/>
<path d="M62.9529 205.867H60.0478V271.155H62.9529V205.867Z" fill="#535461"/>
<path d="M81.2081 270.957L81.0274 273.898L80.768 278.06L80.6614 279.79L80.4066 283.952L80.2954 285.682L80.0359 289.844L77.1076 337.049C76.9804 339.08 76.0825 340.987 74.5968 342.38C73.1112 343.774 71.1493 344.55 69.1105 344.551H53.8855C51.8472 344.55 49.8859 343.774 48.4009 342.38C46.916 340.986 46.0191 339.08 45.893 337.049L42.9786 289.812L42.7192 285.649L42.6126 283.92L42.3531 279.757L42.2466 278.028L41.9871 273.866L41.8018 270.924C41.7696 270.358 41.8536 269.791 42.0487 269.259C42.2438 268.726 42.5459 268.239 42.9363 267.827C43.3268 267.415 43.7975 267.088 44.3194 266.864C44.8414 266.64 45.4037 266.525 45.9718 266.526H77.1123C77.6782 266.531 78.2371 266.651 78.7546 266.88C79.272 267.109 79.737 267.441 80.1208 267.857C80.5046 268.272 80.7991 268.761 80.9861 269.294C81.1731 269.827 81.2487 270.393 81.2081 270.957Z" fill="#3F3D56"/>
<path d="M81.0274 273.898L80.768 278.046H42.228L41.9686 273.898H81.0274Z" fill="#9D9CB5"/>
<path d="M80.6614 279.776L80.4066 283.929H42.5941L42.3346 279.776H80.6614Z" fill="#9D9CB5"/>
<path d="M80.2954 285.663L80.0405 289.812H42.9601L42.7006 285.663H80.2954Z" fill="#9D9CB5"/>
<path d="M37.5345 230.337C54.4507 242.556 61.5119 261.665 61.5119 261.665C61.5119 261.665 41.1253 260.967 24.2044 248.748C7.28358 236.53 0.2363 217.425 0.2363 217.425C0.2363 217.425 20.6136 218.119 37.5345 230.337Z" fill="#9EBCE4"/>
<path d="M0.222401 217.425C0.222401 217.425 21.3874 229.149 28.1752 238.856C34.963 248.563 61.5119 261.665 61.5119 261.665" stroke="#535461" stroke-width="2" stroke-miterlimit="10"/>
<path d="M48.4552 205.724C57.6616 212.37 61.5119 222.771 61.5119 222.771C61.5119 222.771 50.4151 222.392 41.2041 215.746C31.993 209.1 28.152 198.694 28.152 198.694C28.152 198.694 39.2442 199.074 48.4552 205.724Z" fill="#9EBCE4"/>
<path d="M28.152 198.694C28.152 198.694 39.6705 205.077 43.3632 210.358C47.056 215.64 61.5119 222.771 61.5119 222.771" stroke="#535461" stroke-width="2" stroke-miterlimit="10"/>
<path d="M74.879 222.244C64.3012 233.847 62.0633 249.012 62.0633 249.012C62.0633 249.012 76.9779 245.358 87.5465 233.75C98.1151 222.142 100.362 206.982 100.362 206.982C100.362 206.982 85.4569 210.64 74.879 222.244Z" fill="#9EBCE4"/>
<path d="M100.372 206.987C100.372 206.987 86.5921 218.882 83.0893 227.077C79.5865 235.272 62.0633 249.012 62.0633 249.012" stroke="#535461" stroke-width="2" stroke-miterlimit="10"/>
<path d="M463.179 218.16C463.179 218.16 455.529 180.172 458.457 175.446C458.457 175.446 458.564 171.052 458.388 165.451C458.388 165.239 458.388 165.026 458.388 164.809C458.903 165.151 459.44 165.46 459.996 165.734C462.694 167.117 465.791 167.516 468.753 166.862L466.436 164.286C465.88 163.671 465.301 163.005 465.18 162.191C465.06 161.377 465.393 160.651 465.681 159.925C467.882 154.375 467.997 147.396 463.758 143.16C460.176 139.599 459.305 135.002 455.418 131.751C452.578 129.369 451.016 125.877 449.543 122.501C448.297 119.648 447.041 116.771 446.327 113.746C445.771 111.383 445.549 108.937 444.784 106.629C444.02 104.321 442.588 102.078 440.35 101.047C439.553 100.681 438.668 100.473 437.941 99.9877C436.987 99.3449 436.412 98.2997 435.722 97.384C432.214 92.7592 420.469 95.4832 414.909 97.3608C413.397 97.8337 411.998 98.6078 410.794 99.6362L410.845 99.553C410.887 99.4836 410.938 99.4142 410.984 99.3449C410.376 99.8361 409.85 100.422 409.428 101.079C408.617 102.36 408.279 103.854 407.602 105.241C406.787 106.883 402.251 111.466 404.201 113.312C404.338 113.436 404.495 113.536 404.665 113.608C405.397 113.912 406.203 113.992 406.981 113.839L406.898 114.038C406.232 115.666 405.89 117.408 405.892 119.167C405.892 126.765 412.171 132.925 419.922 132.925C421.379 132.927 422.828 132.704 424.217 132.264C424.25 132.44 424.277 132.616 424.31 132.791C424.31 132.861 424.333 132.93 424.342 132.999L424.097 133.342C424.084 133.321 424.07 133.3 424.055 133.281L416.781 143.428C415.669 144.21 409.265 148.835 408.904 152.303C408.524 156.1 408.144 160.545 408.144 160.545L408.093 161.497C407.775 161.762 407.404 161.956 407.004 162.063C406.604 162.171 406.185 162.191 405.777 162.122C403.506 161.752 403.506 170.446 403.506 170.446C403.506 170.446 401.996 171.834 400.958 170.631C399.92 169.429 397.177 173.503 397.177 173.503L379.988 174.243L379.594 174.266L378.667 171.404C378.567 171.102 378.352 170.851 378.069 170.706C377.785 170.562 377.455 170.535 377.152 170.631C377.08 170.655 377.01 170.684 376.943 170.719L376.879 170.756L376.758 170.839L376.698 170.895C376.665 170.925 376.634 170.957 376.605 170.992L376.55 171.057L376.522 171.084C376.415 171.232 376.344 171.403 376.315 171.583C376.286 171.763 376.3 171.947 376.355 172.12L377.152 174.576C373.834 175.242 370.443 177.12 373.209 182.29L359.189 179.705L363.725 183.507L387.141 188.33C386.831 188.885 387.035 189.69 388.003 190.823C392.173 195.711 399.772 197.039 402.83 197.381C403.637 199.184 404.646 200.891 405.837 202.468L405.573 207.338C405.573 207.338 397.83 244.457 396.413 246.339C397.128 245.529 397.783 244.668 398.373 243.763C396.125 251.389 392.984 261.827 392.159 263.39C390.834 265.888 389.606 275.993 391.117 276.64C391.58 276.839 392.905 276.742 394.796 276.599V277.436L394.712 309.157C394.712 309.157 395.092 328.614 394.05 330.468C393.007 332.323 392.729 336.212 392.729 336.212C392.729 336.212 388.559 343.885 385.256 346.969C385.233 346.993 385.208 347.015 385.181 347.034L385.08 346.313C385.08 346.313 381.109 351.317 372.324 351.035C372.324 351.035 367.037 354.466 374.877 354.651C382.717 354.836 392.729 354.374 392.729 354.374C392.729 354.374 399.721 343.737 405.577 345.124V353.185H407.37V344.995C408.202 344.448 408.914 343.739 409.462 342.91C410.011 342.081 410.386 341.149 410.563 340.171C410.716 339.163 410.604 338.133 410.237 337.181C409.869 336.23 409.26 335.391 408.469 334.746C408.113 334.425 407.828 334.035 407.631 333.598C407.434 333.162 407.329 332.69 407.324 332.212L407.259 332.267C407.259 332.105 407.218 331.939 407.199 331.768C406.685 327.605 406.041 319.017 408.316 312.663C411.434 303.95 412.379 291.814 410.109 284.59C409.376 282.281 408.774 279.933 408.306 277.556C408.251 277.256 408.2 276.969 408.153 276.701C409.705 276.91 411.242 277.219 412.754 277.625C418.013 279.073 429.518 279.341 439.34 279.263C439.363 279.531 439.391 279.813 439.424 280.095C439.599 282.056 439.965 283.995 440.517 285.885C441.75 289.585 442.315 305.897 442.315 305.897C442.315 305.897 443.904 319.309 443.038 324.766C442.574 327.8 442.111 330.847 441.847 333.909V333.969C441.847 333.969 439.243 341.369 437.339 345.388C437.292 345.49 437.241 345.591 437.195 345.688C436.687 345.735 436.188 345.845 435.708 346.017C435.708 346.017 433.155 351.104 430.611 351.946C428.067 352.787 428.911 355.558 434.67 354.54C440.429 353.523 449.126 352.69 449.126 352.69L449.501 347.501L451.271 345.291L450.808 350.466L452.694 350.096L452.443 343.801L455.339 340.185C455.339 340.185 458.837 337.077 453.639 330.963V331.097C453.583 331.009 453.532 330.917 453.472 330.829V330.801C452.61 329.469 451.924 326.986 453.18 322.578C455.45 314.614 456.771 307.386 456.771 307.386C456.771 307.386 461.84 288.022 455.747 278.86H456.016C455.391 277.571 454.95 276.201 454.704 274.79C454.674 274.624 454.646 274.453 454.621 274.277C459.129 274.018 463.554 273.204 467.163 271.447C467.149 271.428 464.976 225.476 463.179 218.16ZM405.943 186.11V186.203L405.017 186.249L405.943 186.11ZM402.765 186.55C402.613 186.583 402.47 186.651 402.348 186.749C401.95 187.311 401.699 187.965 401.62 188.649L400.175 188.326C400.175 188.326 399.16 188.108 397.701 187.863L397.01 187.169C398.91 187.012 400.884 186.781 402.765 186.55Z" fill="url(#paint1_linear_30_7)"/>
<path d="M450.595 343.866L450.043 350.42L451.892 350.05L451.614 342.941L450.595 343.866Z" fill="#1D2366"/>
<path d="M408.418 312.751C406.189 319.087 406.819 327.638 407.319 331.791C407.505 333.326 407.676 334.261 407.676 334.261C407.676 334.261 404.345 341.836 404.067 342.123C403.789 342.409 394.263 348.214 394.263 348.214L387.605 352.094C387.605 352.094 380.849 349.138 384.088 348.121C384.75 347.856 385.346 347.45 385.835 346.932C389.078 343.857 393.151 336.212 393.151 336.212C393.151 336.212 393.429 332.332 394.448 330.487C395.467 328.641 395.097 309.25 395.097 309.25L395.176 277.639V273.519L407.848 273.611C407.928 275.01 408.11 276.401 408.394 277.773C408.849 280.142 409.439 282.483 410.16 284.785C412.393 291.995 411.466 304.07 408.418 312.751Z" fill="#FFB0B1"/>
<path opacity="0.1" d="M407.676 334.261C407.676 334.261 404.345 341.836 404.067 342.123C403.789 342.409 394.263 348.214 394.263 348.214L387.605 352.094C387.605 352.094 380.849 349.138 384.088 348.121C384.75 347.856 385.346 347.45 385.835 346.932L386.122 348.953L388.341 348.861L407.338 331.8C407.505 333.326 407.676 334.261 407.676 334.261Z" fill="black"/>
<path d="M407.445 332.23L388.341 349.407L386.122 349.499L385.659 346.262C385.659 346.262 381.776 351.247 373.149 350.97C373.149 350.97 367.969 354.388 375.646 354.573C383.324 354.758 393.128 354.295 393.128 354.295C393.128 354.295 399.976 343.658 405.707 345.046V353.079H407.468V344.972C408.286 344.422 408.985 343.712 409.522 342.885C410.058 342.059 410.422 341.132 410.591 340.162C410.743 339.162 410.635 338.14 410.277 337.194C409.919 336.248 409.324 335.41 408.547 334.76C408.201 334.436 407.924 334.044 407.734 333.609C407.545 333.174 407.446 332.705 407.445 332.23Z" fill="#1D2366"/>
<path d="M452.355 322.629C451.123 327.023 451.795 329.497 452.638 330.824V330.852C453.719 332.491 454.472 334.324 454.853 336.249L454.927 336.666L446.235 349.314L441.518 351.164C441.518 351.164 433.933 348.579 435.319 347.839C435.666 347.659 436.208 346.697 436.829 345.369C438.682 341.369 441.24 333.988 441.24 333.988V333.928C441.509 330.88 441.935 327.841 442.408 324.817C443.255 319.373 441.699 306.012 441.699 306.012C441.699 306.012 441.143 289.766 439.938 286.07C439.394 284.192 439.033 282.265 438.858 280.317C438.608 278.005 438.553 276.099 438.553 276.099C438.553 276.099 443.547 269.162 452.703 276.654C453.435 277.252 454.079 277.949 454.616 278.726C460.941 287.708 455.849 307.492 455.849 307.492C455.849 307.492 454.575 314.689 452.355 322.629Z" fill="#FFB0B1"/>
<path opacity="0.1" d="M454.941 336.665L446.249 349.314L441.532 351.164C441.532 351.164 433.947 348.579 435.332 347.839C435.68 347.659 436.222 346.697 436.843 345.369C440.054 345.342 441.717 348.394 441.717 348.394L445.785 347.746C445.785 347.746 451.151 337.22 452.355 336.578C453.56 335.935 452.541 331.772 452.541 331.772V330.713C452.573 330.75 452.601 330.792 452.638 330.829V330.857C453.72 332.496 454.472 334.329 454.853 336.254L454.941 336.665Z" fill="black"/>
<path d="M441.995 348.667C441.995 348.667 439.679 344.421 435.24 345.989C435.24 345.989 432.742 351.076 430.245 351.899C427.748 352.723 428.582 355.498 434.225 354.485C439.869 353.472 448.375 352.635 448.375 352.635L448.746 347.46L454.482 340.166C454.482 340.166 457.901 337.072 452.814 330.982V332.041C452.814 332.041 453.833 336.203 452.629 336.846C451.424 337.489 446.077 348.019 446.077 348.019L441.995 348.667Z" fill="#1D2366"/>
<path opacity="0.1" d="M407.862 273.602C407.941 275.001 408.124 276.392 408.408 277.764C403.191 277.001 398.349 277.38 395.176 277.63V273.51L407.862 273.602Z" fill="black"/>
<path opacity="0.1" d="M455.131 279.878C455.131 279.878 447.717 280.239 438.877 280.313C438.627 278 438.571 276.095 438.571 276.095C438.571 276.095 443.566 269.158 452.721 276.65C453.453 277.247 454.098 277.945 454.635 278.722C454.778 279.116 454.944 279.502 455.131 279.878Z" fill="black"/>
<path d="M455.131 279.045C455.131 279.045 422.66 280.613 412.764 277.843C402.867 275.073 393.058 277.473 391.58 276.83C390.102 276.187 391.302 266.119 392.599 263.626C393.897 261.133 401.014 235.924 401.014 235.924L407.862 200.285L415.076 198.301L415.585 198.158L428.155 194.699L437.367 192.16C437.367 192.16 455.682 263.534 454.111 268.797C453.541 270.812 453.449 272.932 453.843 274.989C454.083 276.394 454.516 277.759 455.131 279.045Z" fill="#1D2366"/>
<path d="M383.991 175.913C383.991 175.913 377.504 182.85 382.415 186.716C387.327 190.583 390.556 187.086 390.556 187.086L383.991 175.913Z" fill="#C7DAF5"/>
<path opacity="0.1" d="M383.991 175.913C383.991 175.913 377.504 182.85 382.415 186.716C387.327 190.583 390.556 187.086 390.556 187.086L383.991 175.913Z" fill="black"/>
<path d="M436.398 130.303C436.398 130.303 435.638 131.025 434.494 132.088C432.863 133.61 430.449 135.834 428.308 137.698C425.343 140.274 422.897 142.166 423.772 140.552C424.648 138.938 424.481 136.126 424.046 133.494C424.013 133.319 423.986 133.143 423.953 132.972C423.592 131.039 423.114 129.13 422.521 127.255C422.521 127.255 427.312 121.077 429.962 118.64C430.949 117.715 431.64 117.335 431.681 117.978C431.728 118.843 432.376 120.753 433.183 122.779C433.206 122.843 433.229 122.904 433.257 122.968C433.794 124.356 434.401 125.78 434.934 127.01C435.75 128.897 436.398 130.303 436.398 130.303Z" fill="#FFB0B1"/>
<path opacity="0.1" d="M433.257 122.968C432.807 125.385 431.714 127.637 430.094 129.489C428.474 131.341 426.385 132.724 424.046 133.494C423.677 131.383 423.168 129.299 422.521 127.255C422.521 127.255 431.542 115.624 431.681 117.978C431.714 118.871 432.418 120.85 433.257 122.968Z" fill="black"/>
<path opacity="0.1" d="M423.147 136.602L424.314 134.96C424.314 134.96 425.088 139.668 427.933 137.592C430.778 135.515 430.917 153.219 430.917 153.219L427.864 198.787L405.8 197.469L406.425 175.45L408.923 164.351L415.099 148.215L418.773 142.883L423.147 136.602Z" fill="black"/>
<path d="M430.917 153.501L428.137 194.703L427.845 199.069L415.544 198.334L415.08 198.306L405.814 197.751L406.439 175.728L408.937 164.628L415.113 148.492L418.787 143.16L423.161 136.857L424.328 135.219C424.328 135.219 425.102 139.927 427.947 137.851L428.007 137.809C430.787 136.052 430.917 153.501 430.917 153.501Z" fill="#1D2366"/>
<path d="M409.247 160.771C409.247 160.771 408.14 163.084 405.916 162.709C403.692 162.334 403.696 171.034 403.696 171.034C403.696 171.034 402.218 172.421 401.199 171.219C400.18 170.016 397.492 174.081 397.492 174.081L380.655 174.821C380.655 174.821 388.147 178.239 386.678 188.58C386.678 188.58 412.115 187.008 412.949 184.607C413.783 182.207 409.247 160.771 409.247 160.771Z" fill="white"/>
<path opacity="0.03" d="M409.247 160.771C409.247 160.771 408.14 163.084 405.916 162.709C403.692 162.334 403.696 171.034 403.696 171.034C403.696 171.034 402.218 172.421 401.199 171.219C400.18 170.016 397.492 174.081 397.492 174.081L380.655 174.821C380.655 174.821 388.147 178.239 386.678 188.58C386.678 188.58 412.115 187.008 412.949 184.607C413.783 182.207 409.247 160.771 409.247 160.771Z" fill="black"/>
<path d="M360.314 180.255L364.753 184.038L401.292 191.702L396.76 187.086L360.314 180.255Z" fill="white"/>
<path d="M423.216 138.059C422.609 138.984 420.872 143.72 419.422 147.854C418.212 151.3 417.202 154.329 417.202 154.329C417.202 154.329 414.844 169.655 413.639 172.426C412.435 175.196 413.088 185.999 413.088 185.999L408.598 212.68C408.598 212.68 406.564 226.438 403.423 234.657C400.323 242.745 396.871 246.538 396.765 246.658C398.155 244.78 405.73 207.81 405.73 207.81L408.232 161.183C408.232 161.183 408.598 156.752 408.969 152.965C409.34 149.177 416.846 144.006 416.846 144.006L424.083 133.735C424.81 134.706 424.324 136.399 423.216 138.059Z" fill="white"/>
<path d="M404.345 197.982C404.345 197.982 393.688 197.52 388.527 191.332C383.365 185.144 400.458 188.862 400.458 188.862L404.901 189.88L404.345 197.982Z" fill="#FFB0B1"/>
<path opacity="0.1" d="M454.111 268.801C453.541 270.817 453.449 272.937 453.843 274.994C442.218 275.817 429.782 272.682 429.782 272.682C427.465 274.809 421.363 277.945 421.363 277.945L418.036 236.784C415.91 231.234 415.076 202.158 415.076 202.158C415.076 202.158 415.266 200.637 415.539 198.357C415.539 198.301 415.539 198.241 415.562 198.186C416.392 191.817 418.036 179.862 418.843 178.248C419.955 176.028 415.423 170.123 415.423 170.123L417.485 152.572L417.735 150.453C422.081 148.516 425.413 142.328 425.413 142.328L427.97 137.855C430.75 136.075 430.894 153.524 430.894 153.524L428.114 194.726L437.325 192.187C437.325 192.187 455.682 263.538 454.111 268.801Z" fill="black"/>
<path d="M466.042 271.646C453.37 277.926 430.338 272.108 430.338 272.108C428.021 274.236 421.919 277.371 421.919 277.371L418.588 236.211C416.466 230.661 415.632 201.585 415.632 201.585C415.632 201.585 418.31 179.89 419.422 177.675C419.746 177.027 419.588 176.065 419.204 175.029C417.313 170.099 416.618 164.791 417.175 159.541L418.064 151.998L418.31 149.884C422.66 147.942 425.992 141.754 425.992 141.754L428.308 137.703L432.571 130.238L434.591 126.705L434.934 127.015L437.552 129.383C437.552 129.383 438.664 130.308 440.332 131.695C443.96 134.748 450.229 140.122 453.463 143.41C456.307 146.305 457.206 157.566 457.466 166.043C457.637 171.626 457.535 176.001 457.535 176.001C454.667 180.713 462.169 218.549 462.169 218.549C463.915 225.86 466.042 271.646 466.042 271.646Z" fill="white"/>
<path opacity="0.03" d="M441.717 141.662C441.717 141.662 433.02 158.186 434.031 164.466C435.041 170.747 437.913 177.855 436.528 179.515C436.052 180.144 435.437 180.655 434.73 181.007C434.024 181.359 433.245 181.544 432.455 181.546C431.065 181.638 427.359 184.223 427.359 184.501C427.359 184.778 423.935 184.778 420.872 186.073C417.809 187.368 413.287 188.104 413.287 188.104C413.287 188.104 404.484 187.826 403.664 188.659C402.844 189.491 402 194.472 403.756 198.445C405.512 202.417 407.463 205.382 408.937 205.923C410.41 206.464 419.76 203.338 427.345 202.598C434.929 201.858 443.163 195.859 443.163 195.859C443.163 195.859 452.23 192.622 453.819 187.179C455.409 181.735 451.878 151.818 451.878 151.818C451.878 151.818 449.209 137.874 441.717 141.662Z" fill="black"/>
<path opacity="0.03" d="M440.605 140.274C440.605 140.274 431.908 156.803 432.928 163.079C433.947 169.355 436.811 176.468 435.421 178.133C434.946 178.762 434.332 179.274 433.626 179.626C432.92 179.978 432.142 180.162 431.352 180.163C429.962 180.255 426.256 182.841 426.256 183.118C426.256 183.396 422.832 183.396 419.769 184.686C416.707 185.976 412.184 186.716 412.184 186.716C412.184 186.716 403.381 186.439 402.566 187.271C401.75 188.104 400.898 193.089 402.658 197.057C404.419 201.025 406.365 203.994 407.838 204.536C409.312 205.077 418.662 201.95 426.247 201.215C433.831 200.48 442.065 194.472 442.065 194.472C442.065 194.472 451.127 191.235 452.698 185.796C454.269 180.357 450.757 150.43 450.757 150.43C450.757 150.43 448.097 136.491 440.605 140.274Z" fill="black"/>
<path d="M441.444 140.829C441.444 140.829 432.747 157.358 433.766 163.634C434.786 169.91 437.649 177.023 436.264 178.683C435.79 179.314 435.175 179.827 434.468 180.18C433.761 180.533 432.982 180.717 432.191 180.718C430.801 180.81 427.094 183.396 427.094 183.668C427.094 183.941 423.675 183.946 420.608 185.241C417.541 186.536 413.023 187.271 413.023 187.271C413.023 187.271 404.22 186.994 403.4 187.826C402.58 188.659 401.736 193.644 403.492 197.612C405.248 201.58 407.199 204.549 408.672 205.09C410.146 205.632 419.496 202.505 427.081 201.765C434.665 201.025 442.899 195.027 442.899 195.027C442.899 195.027 451.966 191.79 453.555 186.346C455.145 180.903 451.637 150.985 451.637 150.985C451.637 150.985 448.931 137.065 441.444 140.829Z" fill="white"/>
<path opacity="0.1" d="M441.254 185.162C441.254 185.162 434.304 183.775 436.722 186.087C439.141 188.4 439.127 190.425 442.088 190.333C445.049 190.24 441.254 185.162 441.254 185.162Z" fill="black"/>
<path opacity="0.1" d="M452.999 234.916C452.999 234.916 449.858 237.038 455.867 241.931C461.877 246.824 452.999 234.916 452.999 234.916Z" fill="black"/>
<path opacity="0.1" d="M447.004 252.365C447.004 252.642 445.892 262.539 450.053 265.014C454.213 267.488 447.004 252.365 447.004 252.365Z" fill="black"/>
<path d="M380.942 174.798C377.587 174.914 370.341 175.936 374.099 182.933C377.421 189.126 383.004 184.986 386.145 181.846C385.379 178.919 383.517 176.396 380.942 174.798Z" fill="#FFB0B1"/>
<path opacity="0.1" d="M440.332 131.977C436.773 134.405 433.79 136.454 433.206 136.88C431.612 138.059 428.572 144.982 426.613 148.516C425.051 151.36 419.978 152.09 418.064 152.271L418.31 150.157C422.66 148.215 425.992 142.027 425.992 142.027L434.591 126.978L437.552 129.665C437.552 129.665 438.664 130.59 440.332 131.977Z" fill="black"/>
<path d="M440.332 131.7C436.773 134.128 433.79 136.177 433.206 136.607C431.612 137.781 428.572 144.705 426.613 148.238C425.051 151.082 419.978 151.813 418.064 151.993L418.31 149.88C422.66 147.937 425.992 141.749 425.992 141.749L434.591 126.7L437.552 129.378C437.552 129.378 438.664 130.294 440.332 131.7Z" fill="#DCE7FF"/>
<path d="M433.484 119.916C433.486 122.692 432.642 125.403 431.065 127.69C429.203 130.394 426.431 132.342 423.253 133.18C420.074 134.018 416.7 133.692 413.743 132.26C410.785 130.827 408.44 128.384 407.132 125.373C405.825 122.363 405.642 118.984 406.617 115.85C407.592 112.717 409.66 110.036 412.446 108.294C415.232 106.552 418.551 105.864 421.801 106.356C425.051 106.848 428.017 108.486 430.161 110.974C432.304 113.462 433.483 116.635 433.484 119.916Z" fill="#FFB0B1"/>
<path opacity="0.1" d="M457.466 166.048C455.584 164.893 454.052 163.25 453.032 161.294C452.258 159.768 451.744 158.006 450.423 156.923C449.232 155.952 447.643 155.716 446.161 155.282C441.286 153.843 437.2 149.404 437.047 144.335C436.973 141.948 437.719 139.567 437.38 137.203C437.188 135.866 436.655 134.6 435.833 133.527C435.425 133.013 434.977 132.532 434.494 132.088C433.845 131.478 433.164 130.886 432.571 130.238C432.197 129.838 431.871 129.395 431.598 128.92C431.378 128.532 431.199 128.121 431.065 127.695C430.139 124.864 430.982 121.507 429.962 118.644L429.907 118.487C429.522 117.469 428.739 116.452 427.65 116.373C426.562 116.295 425.63 117.197 424.592 117.599C422.419 118.441 420.075 117.007 418.263 115.546C416.452 114.084 414.408 112.415 412.106 112.738C410.581 112.956 409.377 113.992 407.973 114.528C407.656 114.651 407.329 114.745 406.995 114.81C408.183 111.853 410.366 109.401 413.169 107.875C415.971 106.349 419.219 105.846 422.353 106.45C425.487 107.055 428.313 108.73 430.344 111.189C432.375 113.647 433.485 116.734 433.484 119.921C433.485 120.883 433.384 121.842 433.183 122.783C433.206 122.848 433.229 122.908 433.257 122.973C433.794 124.36 434.401 125.785 434.934 127.015L437.552 129.383C437.552 129.383 438.664 130.308 440.332 131.695C443.96 134.748 450.229 140.122 453.463 143.41C456.307 146.314 457.197 157.571 457.466 166.048Z" fill="black"/>
<path d="M407.811 106.079C408.473 104.733 408.802 103.225 409.594 101.949C410.757 100.099 412.787 98.9148 414.872 98.198C420.316 96.3249 431.82 93.6056 435.258 98.198C435.935 99.1229 436.495 100.15 437.431 100.788C438.145 101.273 439.007 101.482 439.79 101.847C441.981 102.874 443.381 105.112 444.127 107.397C444.873 109.681 445.095 112.132 445.642 114.486C446.341 117.506 447.569 120.369 448.792 123.213C450.233 126.571 451.762 130.053 454.542 132.426C458.337 135.663 459.176 140.246 462.697 143.798C466.867 148.016 466.732 154.976 464.583 160.503C464.3 161.229 463.98 161.988 464.092 162.76C464.203 163.532 464.777 164.235 465.319 164.85L467.599 167.417C462.206 168.717 456.104 165.905 453.592 160.97C452.819 159.444 452.304 157.687 450.979 156.6C449.793 155.628 448.199 155.397 446.721 154.963C441.847 153.52 437.76 149.075 437.607 144.006C437.533 141.625 438.279 139.243 437.941 136.884C437.753 135.538 437.218 134.263 436.389 133.184C435.115 131.524 433.192 130.41 432.154 128.56C430.398 125.466 431.732 121.447 430.468 118.126C430.078 117.109 429.3 116.091 428.211 116.013C427.122 115.934 426.191 116.836 425.148 117.238C422.98 118.08 420.636 116.651 418.824 115.185C417.012 113.719 414.969 112.054 412.662 112.382C411.137 112.595 409.937 113.631 408.533 114.172C407.496 114.57 405.392 114.926 404.484 114.052C402.566 112.29 407.009 107.725 407.811 106.079Z" fill="#591D4B"/>
<path opacity="0.1" d="M454.88 159.444C454.102 157.918 453.592 156.16 452.267 155.078C451.081 154.107 449.487 153.871 448.005 153.436C443.135 151.998 439.048 147.554 438.891 142.485C438.817 140.103 439.563 137.717 439.229 135.358C439.035 134.02 438.501 132.754 437.677 131.681C436.398 130.021 434.475 128.906 433.442 127.057C431.686 123.967 433.021 119.948 431.751 116.623C431.366 115.61 430.583 114.593 429.499 114.51C428.415 114.426 427.474 115.337 426.437 115.74C424.268 116.581 421.919 115.148 420.112 113.686C418.305 112.225 416.253 110.555 413.95 110.879C412.425 111.096 411.221 112.132 409.821 112.669C408.784 113.067 406.675 113.427 405.767 112.553C403.858 110.703 408.302 106.148 409.099 104.511C409.761 103.16 410.09 101.657 410.887 100.381C410.929 100.311 410.975 100.242 411.022 100.173C410.425 100.666 409.911 101.249 409.497 101.902C408.705 103.179 408.376 104.677 407.713 106.032C406.912 107.669 402.468 112.239 404.382 114.075C405.309 114.954 407.394 114.593 408.431 114.195C409.821 113.654 411.035 112.618 412.56 112.405C414.876 112.077 416.915 113.746 418.722 115.208C420.529 116.669 422.892 118.103 425.051 117.261C426.089 116.859 426.997 115.952 428.109 116.036C429.221 116.119 429.963 117.132 430.366 118.149C431.631 121.47 430.296 125.489 432.052 128.583C433.09 130.4 435.013 131.538 436.287 133.208C437.116 134.286 437.651 135.561 437.839 136.907C438.177 139.266 437.431 141.648 437.506 144.03C437.658 149.117 441.745 153.543 446.619 154.986C448.088 155.42 449.691 155.652 450.877 156.623C452.207 157.71 452.731 159.467 453.49 160.993C456.002 165.928 462.104 168.74 467.497 167.44L466.422 166.228C461.747 166.298 457.016 163.643 454.88 159.444Z" fill="black"/>
<path opacity="0.1" d="M422.938 138.336C422.331 139.261 420.594 143.997 419.144 148.132C417.786 147.605 416.554 144.242 416.554 144.242L423.791 133.966C424.532 134.984 424.046 136.672 422.938 138.336Z" fill="black"/>
<path d="M423.216 138.059C422.609 138.984 420.872 143.72 419.422 147.854C418.064 147.332 416.832 143.965 416.832 143.965L424.069 133.693C424.81 134.706 424.324 136.399 423.216 138.059Z" fill="#DCE7FF"/>
<path d="M381.137 185.306L377.124 172.675C377.077 172.528 377.059 172.372 377.072 172.217C377.085 172.062 377.128 171.912 377.2 171.774C377.271 171.636 377.369 171.513 377.488 171.413C377.607 171.313 377.745 171.238 377.893 171.191C378.192 171.098 378.515 171.126 378.793 171.27C379.071 171.414 379.28 171.661 379.376 171.959L383.388 184.575L382.99 187.216L381.137 185.306Z" fill="#BE8B87"/>
<path opacity="0.1" d="M377.504 171.565C377.803 171.471 378.128 171.499 378.407 171.643C378.685 171.786 378.896 172.035 378.991 172.333L383.004 184.95L382.703 186.929L382.995 187.234L383.393 184.593L379.357 171.977C379.262 171.68 379.052 171.432 378.774 171.289C378.497 171.145 378.173 171.116 377.875 171.209C377.623 171.291 377.407 171.453 377.259 171.672C377.337 171.63 377.419 171.594 377.504 171.565Z" fill="white"/>
<path d="M381.137 185.306L383.388 184.594L383.059 186.758L382.99 187.234L382.332 186.55L381.137 185.306Z" fill="#EFC8C4"/>
<path d="M382.332 186.55C382.371 186.5 382.42 186.459 382.476 186.43C382.508 186.409 382.546 186.398 382.585 186.398C382.623 186.398 382.661 186.409 382.693 186.43C382.725 186.468 382.751 186.51 382.772 186.554C382.803 186.605 382.845 186.649 382.894 186.682C382.944 186.715 383 186.736 383.059 186.744L382.99 187.206L382.332 186.55Z" fill="#727A9C"/>
<path d="M377.101 177.161C377.101 177.161 385.149 177.115 383.254 180.533C381.359 183.951 378.398 184.362 378.398 184.362L377.101 177.161Z" fill="#FFB0B1"/>
<path d="M327.047 23.7806H326.7C312.874 23.7806 300.647 31.0832 293.613 41.8589C286.58 31.0832 274.353 23.7806 260.527 23.7806H260.179C249.803 23.8793 239.886 28.0613 232.582 35.4178C225.277 42.7744 221.177 52.7109 221.171 63.0681C221.171 75.9297 226.815 94.179 237.819 109.196C258.785 137.809 293.613 162.843 293.613 162.843C293.613 162.843 328.442 137.814 349.403 109.196C360.412 94.179 366.051 75.9297 366.051 63.0681C366.045 52.7117 361.945 42.7758 354.642 35.4195C347.339 28.0631 337.422 23.8805 327.047 23.7806ZM322.076 111.397C320.501 111.391 318.965 110.91 317.669 110.017C316.374 109.124 315.379 107.861 314.815 106.393H306.549C306.005 106.39 305.475 106.217 305.034 105.898C304.593 105.58 304.263 105.132 304.089 104.617L301.55 96.9816L293.516 125.003C293.359 125.543 293.032 126.017 292.582 126.355C292.133 126.692 291.586 126.875 291.023 126.876H290.861C290.274 126.848 289.714 126.619 289.276 126.229C288.837 125.838 288.547 125.309 288.452 124.73L280.172 75.0232L274.121 104.437C273.982 104.996 273.66 105.492 273.206 105.846C272.751 106.201 272.191 106.393 271.614 106.393H259.971C259.622 106.408 259.273 106.352 258.946 106.229C258.62 106.106 258.321 105.918 258.069 105.676C257.817 105.435 257.616 105.145 257.479 104.825C257.342 104.504 257.271 104.159 257.271 103.81C257.271 103.461 257.342 103.116 257.479 102.796C257.616 102.475 257.817 102.185 258.069 101.944C258.321 101.703 258.62 101.515 258.946 101.391C259.273 101.268 259.622 101.212 259.971 101.227H269.576L278.147 61.6807C278.288 61.096 278.628 60.5783 279.109 60.216C279.589 59.8537 280.181 59.6694 280.783 59.6945C281.385 59.7196 281.96 59.9526 282.408 60.3537C282.857 60.7548 283.153 61.2991 283.244 61.8934L291.7 112.6L298.9 87.5286C299.05 87.0006 299.367 86.5351 299.803 86.2017C300.24 85.8683 300.773 85.6848 301.323 85.6787H301.374C301.919 85.6789 302.449 85.8506 302.89 86.1695C303.331 86.4884 303.66 86.9382 303.83 87.4546L308.421 101.241H314.713C315.161 99.8845 315.975 98.6776 317.066 97.7537C318.157 96.8297 319.483 96.2247 320.897 96.0053C322.311 95.7859 323.758 95.9607 325.078 96.5104C326.399 97.0601 327.542 97.9634 328.381 99.1204C329.219 100.277 329.722 101.643 329.832 103.067C329.942 104.491 329.656 105.918 329.005 107.19C328.354 108.462 327.364 109.53 326.144 110.275C324.923 111.021 323.52 111.416 322.09 111.416L322.076 111.397Z" fill="#9EBCE4"/>
</g>
<defs>
<linearGradient id="paint0_linear_30_7" x1="165.099" y1="358.36" x2="165.099" y2="73.7791" gradientUnits="userSpaceOnUse">
<stop stop-color="#808080" stop-opacity="0.25"/>
<stop offset="0.54" stop-color="#808080" stop-opacity="0.12"/>
<stop offset="1" stop-color="#808080" stop-opacity="0.1"/>
</linearGradient>
<linearGradient id="paint1_linear_30_7" x1="413.954" y1="354.762" x2="413.954" y2="94.8496" gradientUnits="userSpaceOnUse">
<stop stop-color="#808080" stop-opacity="0.25"/>
<stop offset="0.54" stop-color="#808080" stop-opacity="0.12"/>
<stop offset="1" stop-color="#808080" stop-opacity="0.1"/>
</linearGradient>
<clipPath id="clip0_30_7">
<rect width="512" height="362" fill="white"/>
</clipPath>
</defs>
</svg>
